<svg viewBox="0 0 24 24" xmlns="http://www.w3.org/2000/svg">
  <path d="M6.2115.4675c-.665.4658-.6675.4988-.6675 9.7221 0 8.2366.0547 9.3002.4958 9.6672.3792.3149 2.0539.4336 7.1195.5038 3.643.0505 6.9238.0165 7.2905-.0757 1.6095-.4038 1.6095-.4035 1.6095-10.0968 0-8.5867-.0268-9.0137-.6006-9.5875C20.8927.0346 20.4579 0 13.8686 0c-5.8404 0-7.0995.0769-7.657.4675Zm14.3464 9.7419v8.4078H7.0454V1.8017h13.5125v8.4077ZM2.1512 4.3937c-.1156.1159-.2105 4.3603-.2105 9.4323 0 8.2057.0546 9.2671.4957 9.6341.3793.315 2.054.4336 7.1196.5038 7.5024.1039 8.0808.0364 7.9436-.9281-.0943-.6621-.1259-.6654-7.0716-.7456l-6.977-.0808-.0795-8.9236c-.0694-7.7772-.1393-8.9354-.5447-9.0131-.2558-.0493-.5597.005-.6756.121Z"/>
</svg>